{
	"asset":{
		"generator":"Khronos glTF Blender I/O v5.0.21",
		"version":"2.0"
	},
	"scene":0,
	"scenes":[
		{
			"name":"Scene",
			"nodes":[
				0
			]
		}
	],
	"nodes":[
		{
			"mesh":0,
			"name":"Cylinder",
			"rotation":[
				0,
				0,
				-0.7071068286895752,
				0.7071068286895752
			],
			"translation":[
				0,
				0.5013390183448792,
				0
			]
		}
	],
	"meshes":[
		{
			"name":"Cylinder",
			"primitives":[
				{
					"attributes":{
						"POSITION":0,
						"NORMAL":1,
						"TEXCOORD_0":2
					},
					"indices":3
				}
			]
		}
	],
	"accessors":[
		{
			"bufferView":0,
			"componentType":5126,
			"count":4034,
			"max":[
				1.4152852296829224,
				2.347343921661377,
				0.15000000596046448
			],
			"min":[
				-0.39627212285995483,
				-2.2446696758270264,
				-0.18279054760932922
			],
			"type":"VEC3"
		},
		{
			"bufferView":1,
			"componentType":5126,
			"count":4034,
			"type":"VEC3"
		},
		{
			"bufferView":2,
			"componentType":5126,
			"count":4034,
			"type":"VEC2"
		},
		{
			"bufferView":3,
			"componentType":5123,
			"count":10908,
			"type":"SCALAR"
		}
	],
	"bufferViews":[
		{
			"buffer":0,
			"byteLength":48408,
			"byteOffset":0,
			"target":34962
		},
		{
			"buffer":0,
			"byteLength":48408,
			"byteOffset":48408,
			"target":34962
		},
		{
			"buffer":0,
			"byteLength":32272,
			"byteOffset":96816,
			"target":34962
		},
		{
			"buffer":0,
			"byteLength":21816,
			"byteOffset":129088,
			"target":34963
		}
	],
	"buffers":[
		{
			"byteLength":150904,
			"uri":"MP5A3Dirty.bin"
		}
	]
}
